<?xml version="1.0" encoding="utf-8"?>
<!-- Generator: Adobe Illustrator 24.1.1, SVG Export Plug-In . SVG Version: 6.00 Build 0)  -->
<svg version="1.1" id="Capa_1" xmlns="http://www.w3.org/2000/svg" xmlns:xlink="http://www.w3.org/1999/xlink" x="0px" y="0px"
	 viewBox="0 0 2976.38 4251.97" style="enable-background:new 0 0 2976.38 4251.97;" xml:space="preserve">
<style type="text/css">
	.st0{fill-rule:evenodd;clip-rule:evenodd;fill:#00201F;}
	.st1{fill-rule:evenodd;clip-rule:evenodd;fill:#8BC53F;}
</style>
<g>
	<path class="st0" d="M884.69,1488.47v323.14c0,174.86,6.12,327.34,19.89,464.43h-3.06c-47.43-111.91-113.21-243.41-175.93-351.12
		l-247.83-436.45H233v1075.74h204.99v-330.14c0-191.65-4.59-342.73-13.77-475.62h6.12c48.95,117.51,117.79,250.4,180.51,360.91
		l252.42,444.84h226.41V1488.47H884.69L884.69,1488.47z M2431.31,1572.4c0-64.35-48.95-110.51-122.38-110.51
		c-70.37,0-120.85,46.16-120.85,110.51c0,62.95,48.95,110.51,120.85,110.51C2379.3,1682.91,2431.31,1639.55,2431.31,1572.4
		L2431.31,1572.4z M2197.25,1785.03v779.18h226.41v-779.18H2197.25z"/>
	<path class="st0" d="M233,3702.98c55.07,6.99,139.21,13.99,250.89,13.99c209.58,0,341.14-34.97,420.69-100.72
		c68.84-55.95,107.08-137.09,107.08-221.02c0-137.09-97.9-232.22-229.47-262.99v-5.59c125.44-43.37,188.17-134.29,188.17-232.22
		c0-88.13-44.37-159.47-114.74-202.84c-81.08-51.76-182.04-68.54-324.31-68.54c-114.73,0-231,9.79-298.31,22.38V3702.98L233,3702.98
		z M457.88,2783.91c19.89-4.2,50.48-7,99.44-7c100.97,0,188.16,34.97,188.16,141.29c0,88.13-76.49,151.08-204.99,151.08h-82.61
		V2783.91L457.88,2783.91z M542.02,3220.36c116.26,0,232.53,44.76,232.53,169.26c0,121.7-104.03,172.06-226.41,172.06
		c-39.78,0-67.31-1.4-90.26-5.6v-335.73H542.02L542.02,3220.36z M1410.94,2715.36c0-64.35-48.95-110.51-122.38-110.51
		c-70.37,0-120.85,46.16-120.85,110.51c0,62.95,48.95,110.51,120.85,110.51C1358.93,2825.88,1410.94,2782.51,1410.94,2715.36
		L1410.94,2715.36z M1176.88,2928v779.18h226.41V2928H1176.88L1176.88,2928z M1804.1,3063.69l-9.18-135.69h-194.28
		c3.06,69.94,6.12,146.88,6.12,243.4v535.77h226.41v-402.88c0-132.89,78.02-195.84,180.52-195.84c22.95,0,41.3,1.4,58.13,4.2V2915.4
		c-15.3-2.8-29.06-4.2-50.48-4.2c-79.55,0-171.34,51.76-211.11,152.48H1804.1L1804.1,3063.69z M2431.31,2715.36
		c0-64.35-48.95-110.51-122.38-110.51c-70.37,0-120.85,46.16-120.85,110.51c0,62.95,48.95,110.51,120.85,110.51
		C2379.3,2825.88,2431.31,2782.51,2431.31,2715.36L2431.31,2715.36z M2197.25,2928v779.18h226.41V2928H2197.25z"/>
	<path class="st0" d="M1635.54,2576.96c-102.65,0-154.13-32.41-154.13-32.41l87.38-640.24v-0.09c0-1.31,0.05-2.6,0.1-3.9
		c-4.76-21.37-10.79-42.73-17.99-64.04c-9.17-27.01-20.17-53.9-32.72-80.49c-25.11-53.14-56.31-105.07-91.67-155.23
		c-35.38-50.16-74.91-98.57-117.49-145.06c-21.31-23.24-43.44-45.97-66.32-68.17c-11.41-11.09-23-22.06-34.87-32.84
		c-5.94-5.41-11.89-10.74-17.93-16.06c-6.04-5.26-12.13-10.52-18.36-15.65c7.19,3.91,14.31,8,21.41,12.13
		c7.08,4.1,14.12,8.32,21.12,12.57c14.02,8.53,27.87,17.27,41.61,26.19c27.5,17.92,54.48,36.54,80.92,55.95
		c52.89,38.83,103.75,80.6,151.7,125.84c23.92,22.6,47.18,46.11,69.45,70.58c22.32,24.54,43.66,50.03,63.83,76.65
		c9.32,12.4,18.4,25.01,27.22,37.89c7.37-11.01,14.98-21.88,22.73-32.53c19.73-26.97,40.72-52.85,62.61-77.74
		c21.87-24.87,44.76-48.72,68.35-71.72c47.24-46.02,97.42-88.53,149.65-128.14c26.17-19.8,52.81-38.89,80.01-57.16
		c13.6-9.14,27.3-18.11,41.19-26.84c6.94-4.36,13.89-8.66,20.93-12.88c6.98-4.22,14.08-8.4,21.21-12.44
		c-6.08,5.26-12.03,10.65-17.97,16.09c-5.91,5.43-11.72,10.92-17.52,16.39c-11.56,11.05-22.87,22.28-34,33.63
		c-22.26,22.71-43.76,45.93-64.46,69.64c-41.39,47.37-79.57,96.65-113.59,147.54c-33.97,50.9-63.8,103.44-87.39,157.03
		c-11.84,26.8-22.07,53.85-30.44,81c-6.76,21.73-12.27,43.57-16.46,65.33l80.11,636.76c0,0.04-45.95,28.01-160.45,32.06
		C1647.24,2576.83,1641.3,2576.96,1635.54,2576.96L1635.54,2576.96z M1730.86,1923.7"/>
	<path class="st0" d="M1648.38,1653.97c-52.75,0-95.52-39.1-95.52-87.35c0-48.25,42.78-87.34,95.52-87.34
		c52.76,0,95.52,39.09,95.52,87.34C1743.9,1614.87,1701.14,1653.97,1648.38,1653.97z"/>
	<path class="st1" d="M1650.19,1430.26c-9.32-8.35-16.6-16.72-23.3-25.07c-6.62-8.39-12.47-16.74-17.7-25.09
		c-10.42-16.76-18.46-33.5-24.69-50.21c-12.42-33.45-17.75-66.89-17.7-100.39c0.1-33.44,5.52-66.9,17.93-100.36
		c6.2-16.74,14.28-33.44,24.66-50.2c5.23-8.36,11.04-16.75,17.64-25.1c6.66-8.35,13.89-16.74,23.16-25.09
		c9.28,8.35,16.5,16.74,23.22,25.09c6.57,8.35,12.41,16.74,17.6,25.1c10.37,16.76,18.45,33.46,24.64,50.2
		c12.46,33.46,17.85,66.91,17.98,100.36c0,33.5-5.33,66.94-17.74,100.39c-6.19,16.71-14.28,33.45-24.7,50.21
		c-5.18,8.35-11.03,16.7-17.68,25.09C1666.79,1413.55,1659.52,1421.91,1650.19,1430.26z"/>
	<path class="st1" d="M1650.19,972.14c-9.32-8.4-16.6-16.74-23.3-25.1c-6.62-8.39-12.47-16.74-17.7-25.09
		c-10.42-16.74-18.46-33.49-24.69-50.21c-12.42-33.45-17.75-66.94-17.7-100.39c0.1-33.45,5.52-66.9,17.93-100.35
		c6.2-16.74,14.28-33.49,24.66-50.21c5.23-8.35,11.04-16.73,17.64-25.08c6.66-8.36,13.89-16.76,23.16-25.11
		c9.28,8.35,16.5,16.74,23.22,25.11c6.57,8.35,12.41,16.73,17.6,25.08c10.37,16.72,18.45,33.47,24.64,50.21
		c12.46,33.45,17.85,66.9,17.98,100.35c0,33.45-5.33,66.94-17.74,100.39c-6.19,16.72-14.28,33.47-24.7,50.21
		c-5.18,8.35-11.03,16.7-17.68,25.09C1666.79,955.39,1659.52,963.74,1650.19,972.14z"/>
	<path class="st1" d="M1812.41,751.12c-7.52-9.78-13.01-19.23-17.94-28.58c-4.86-9.31-8.94-18.52-12.43-27.61
		c-6.89-18.18-11.5-35.97-14.3-53.46c-5.47-34.94-4.08-68.72,2.61-101.61c6.76-32.89,18.75-64.89,37.62-95.75
		c9.43-15.38,20.74-30.5,34.26-45.23c6.74-7.35,14.18-14.62,22.3-21.75c8.24-7.08,17.04-14.13,27.83-20.79
		c7.42,9.74,12.89,19.18,17.79,28.54c4.79,9.31,8.85,18.53,12.31,27.61c6.86,18.13,11.47,35.93,14.28,53.42
		c5.52,34.98,4.18,68.77-2.37,101.7c-6.62,32.94-18.56,64.94-37.4,95.74c-9.43,15.44-20.69,30.53-34.29,45.24
		c-6.76,7.39-14.18,14.63-22.36,21.75C1832.05,737.42,1823.24,744.42,1812.41,751.12z"/>
	<path class="st1" d="M1574.32,1458.22c-13.04-0.82-24.49-2.81-35.52-5.18c-11.01-2.39-21.41-5.25-31.3-8.51
		c-19.85-6.48-37.87-14.4-54.52-23.37c-33.2-18-61.07-40.24-84.91-65.67c-23.73-25.45-43.48-54.03-57.84-86.83
		c-7.19-16.39-12.98-33.92-17.04-52.81c-2-9.42-3.52-19.22-4.47-29.52c-0.9-10.31-1.37-20.98-0.29-32.84
		c12.99,0.82,24.46,2.86,35.5,5.21c10.94,2.45,21.31,5.31,31.2,8.57c19.79,6.52,37.82,14.4,54.45,23.4
		c33.26,18.02,61.19,40.2,85.11,65.52c23.83,25.36,43.62,53.94,58.03,86.74c7.19,16.39,12.98,33.88,16.98,52.76
		c2.01,9.49,3.52,19.32,4.48,29.62C1575.03,1435.61,1575.47,1446.31,1574.32,1458.22z"/>
	<path class="st1" d="M1279.92,1076.19c-13.04-0.78-24.49-2.83-35.53-5.18c-11-2.39-21.4-5.27-31.29-8.53
		c-19.8-6.47-37.87-14.4-54.48-23.4c-33.26-18.01-61.12-40.23-84.91-65.68c-23.7-25.44-43.44-54.06-57.81-86.86
		c-7.18-16.4-12.97-33.94-17.02-52.77c-2-9.49-3.52-19.27-4.47-29.53c-0.86-10.36-1.34-21.01-0.24-32.89
		c12.99,0.83,24.42,2.87,35.45,5.27c10.99,2.43,21.35,5.31,31.24,8.57c19.79,6.52,37.82,14.38,54.42,23.4
		c33.3,18,61.17,40.24,85.09,65.56c23.85,25.35,43.58,53.93,57.99,86.73c7.18,16.39,12.99,33.93,16.99,52.8
		c2.01,9.44,3.52,19.28,4.43,29.58C1280.63,1053.61,1281.06,1064.26,1279.92,1076.19z"/>
	<path class="st1" d="M1505.3,1153.48c-11.7-5.35-21.45-11.27-30.63-17.37c-9.13-6.08-17.51-12.4-25.26-18.87
		c-15.51-13.02-28.82-26.66-40.39-40.84c-23.02-28.37-39.29-58.72-50.52-90.58c-11.13-31.88-17.21-65.24-16.6-100.56
		c0.29-17.66,2.39-35.84,6.61-54.68c2.15-9.43,4.91-19.05,8.38-28.84c3.52-9.82,7.62-19.83,13.6-30.4
		c11.66,5.36,21.37,11.31,30.55,17.39c9.03,6.09,17.41,12.44,25.16,18.93c15.46,13,28.78,26.66,40.34,40.84
		c23.07,28.36,39.4,58.67,50.76,90.52c11.28,31.79,17.41,65.15,16.84,100.49c-0.28,17.65-2.38,35.83-6.65,54.66
		c-2.14,9.44-4.91,19.04-8.43,28.89C1515.47,1132.9,1511.34,1142.9,1505.3,1153.48z"/>
	<path class="st1" d="M1235.43,1647.4c-28.11,0-55.36-3.26-81.91-9.22c-35.49-8.05-69.79-20.75-102.36-39.76
		c-16.32-9.49-32.16-20.62-47.47-33.8c-7.66-6.61-15.18-13.74-22.49-21.61c-7.29-7.91-14.47-16.31-21.19-26.53
		c11.09-6.26,21.71-10.69,32.16-14.67c10.47-3.87,20.75-7.04,30.89-9.69c20.21-5.22,39.9-8.44,59.11-10
		c9.89-0.78,19.7-1.18,29.4-1.18c27.98,0,55.09,3.23,81.55,9.04c35.52,7.92,69.81,20.58,102.41,39.55
		c16.31,9.48,32.16,20.61,47.48,33.83c7.66,6.62,15.11,13.8,22.44,21.67c7.34,7.96,14.47,16.4,21.12,26.66
		c-11.07,6.31-21.68,10.8-32.16,14.75c-10.45,3.91-20.74,7.13-30.86,9.78c-20.22,5.27-39.9,8.49-59.17,10.05
		C1254.61,1647.01,1245,1647.4,1235.43,1647.4z"/>
	<path class="st1" d="M1118.47,1897.95c-1.29,0-2.58,0-3.85,0c-10.51-0.16-21.36-0.78-32.55-1.99c-11.21-1.35-22.74-3.1-35.19-6.49
		c3.51-11.43,8.04-21.28,12.84-30.66c4.79-9.36,9.99-18.06,15.51-26.23c11.04-16.39,23.17-30.93,36.16-43.97
		c26.06-26.1,55.5-46.6,87.47-62.82c32.06-16.17,66.68-28.05,104.7-34.28c17.75-2.9,36.24-4.47,55.7-4.47c1.44,0,2.86,0,4.27,0.05
		c10.52,0.11,21.36,0.76,32.59,2.03c11.23,1.34,22.79,3.13,35.29,6.57c-3.52,11.48-8.03,21.36-12.8,30.8
		c-4.79,9.31-9.99,18.05-15.49,26.27c-11,16.41-23.12,30.92-36.16,44.03c-26.07,26.05-55.52,46.49-87.58,62.59
		c-32.11,16.04-66.73,27.88-104.78,34.07C1156.76,1896.34,1138.11,1897.95,1118.47,1897.95z"/>
	<path class="st1" d="M971.53,1411.06c-2.33,0-4.61,0-6.94-0.03c-38.64-0.83-74.84-7.66-109.17-19.19
		c-34.35-11.53-66.9-27.62-97.05-49.75c-15.02-11.05-29.49-23.75-43.1-38.36c-6.86-7.31-13.41-15.18-19.73-23.71
		c-6.32-8.61-12.48-17.7-17.89-28.53c11.79-5.09,22.83-8.44,33.72-11.31c10.86-2.82,21.46-4.96,31.83-6.56
		c18.27-2.79,35.95-4.09,53.08-4.09c2.32,0,4.62,0.04,6.94,0.09c38.63,0.78,74.83,7.57,109.27,18.92
		c34.4,11.45,66.93,27.49,97.08,49.59c15.04,11.05,29.5,23.71,43.1,38.41c6.81,7.31,13.42,15.23,19.75,23.75
		c6.28,8.66,12.37,17.75,17.8,28.67c-11.81,5.14-22.88,8.53-33.79,11.43c-10.85,2.84-21.44,4.95-31.82,6.61
		C1006.35,1409.81,988.7,1411.06,971.53,1411.06z"/>
	<path class="st1" d="M1216.41,1273.93c-11.28,0-22.12-0.61-32.58-1.66c-20.94-2.14-40.48-6.01-58.94-11.22
		c-36.88-10.48-69.65-26.22-99.19-45.89c-29.54-19.79-55.99-43.41-78.3-72.3c-11.13-14.44-21.17-30.23-29.87-47.76
		c-4.34-8.73-8.33-17.95-11.85-27.75c-3.48-9.88-6.61-20.14-8.57-31.93c12.84-1.9,24.49-2.35,35.82-2.39
		c11.28,0.04,22.07,0.65,32.53,1.7c20.89,2.18,40.48,6.04,58.89,11.27c36.91,10.48,69.68,26.15,99.37,45.76
		c29.64,19.62,56.09,43.24,78.4,72.07c11.14,14.45,21.22,30.23,29.87,47.76c4.32,8.79,8.33,18.06,11.8,27.84
		c3.47,9.88,6.62,20.19,8.52,32.02C1239.44,1273.41,1227.79,1273.88,1216.41,1273.93z"/>
	<path class="st1" d="M866.36,1763.85c-0.63,0-1.24,0-1.86,0c7.13-0.04,14.21-0.27,21.3-0.65c36.5-2.19,72.69-9.27,108.36-22.75
		c17.85-6.79,35.58-15.28,53.13-25.83c8.81-5.32,17.56-11.23,26.22-17.8c8.7-6.7,17.36-13.87,25.88-22.93
		c-9.76-7.96-19.36-14.05-28.92-19.67c-9.56-5.47-19.07-10.25-28.55-14.47c-18.93-8.39-37.72-14.67-56.41-19.22
		c-28.51-6.97-56.71-10.19-84.68-10.31c0.57,0,1.2,0,1.81,0c28.59,0,57.42,3.21,86.52,10.31c18.65,4.55,37.45,10.83,56.37,19.22
		c9.47,4.22,18.97,9,28.54,14.47c9.57,5.63,19.17,11.72,28.93,19.67c-8.52,9.06-17.18,16.23-25.83,22.93
		c-8.72,6.56-17.46,12.48-26.27,17.8c-17.54,10.56-35.29,19.05-53.13,25.83c-35.68,13.48-71.86,20.56-108.36,22.75
		C881.77,1763.62,874.06,1763.85,866.36,1763.85z"/>
	<path class="st1" d="M1726.06,1458.22c-1.14-11.91-0.66-22.62,0.14-32.93c0.95-10.3,2.47-20.13,4.47-29.62
		c4.01-18.88,9.81-36.37,16.99-52.76c14.41-32.8,34.2-61.38,58.04-86.74c23.93-25.32,51.84-47.49,85.1-65.52
		c16.65-9,34.68-16.88,54.48-23.4c9.89-3.26,20.25-6.12,31.25-8.57c11.04-2.34,22.45-4.38,35.43-5.21
		c1.1,11.87,0.62,22.53-0.24,32.84c-0.95,10.3-2.53,20.1-4.52,29.52c-4.05,18.89-9.85,36.42-17.03,52.81
		c-14.37,32.8-34.1,61.38-57.84,86.83c-23.77,25.43-51.67,47.67-84.91,65.67c-16.65,8.97-34.69,16.89-54.46,23.37
		c-9.96,3.26-20.31,6.13-31.3,8.51C1750.56,1455.41,1739.09,1457.4,1726.06,1458.22z"/>
	<path class="st1" d="M2020.46,1076.19c-1.14-11.92-0.71-22.57,0.15-32.94c0.95-10.31,2.43-20.14,4.44-29.58
		c4.03-18.87,9.79-36.41,16.97-52.8c14.41-32.8,34.16-61.38,58.04-86.73c23.88-25.32,51.79-47.56,85.05-65.56
		c16.61-9.01,34.68-16.88,54.42-23.4c9.93-3.26,20.32-6.14,31.26-8.57c11.03-2.39,22.49-4.44,35.48-5.27
		c1.05,11.87,0.62,22.52-0.29,32.89c-0.95,10.27-2.47,20.05-4.47,29.53c-4.03,18.83-9.79,36.37-16.97,52.77
		c-14.43,32.8-34.11,61.42-57.85,86.86c-23.78,25.45-51.66,47.67-84.87,65.68c-16.64,9-34.68,16.93-54.45,23.4
		c-9.96,3.26-20.37,6.13-31.36,8.53C2044.97,1073.36,2033.49,1075.4,2020.46,1076.19z"/>
	<path class="st1" d="M1795.13,1153.48c-6.08-10.58-10.18-20.58-13.79-30.41c-3.47-9.84-6.22-19.45-8.42-28.89
		c-4.28-18.84-6.32-37.02-6.64-54.66c-0.58-35.34,5.6-68.7,16.88-100.49c11.32-31.84,27.68-62.16,50.76-90.52
		c11.51-14.18,24.83-27.85,40.29-40.84c7.77-6.49,16.12-12.84,25.22-18.93c9.16-6.08,18.83-12.04,30.48-17.39
		c6.01,10.57,10.09,20.58,13.66,30.4c3.48,9.79,6.19,19.41,8.32,28.84c4.29,18.84,6.33,37.02,6.62,54.68
		c0.62,35.32-5.46,68.68-16.6,100.56c-11.16,31.86-27.49,62.21-50.52,90.58c-11.56,14.18-24.83,27.83-40.39,40.84
		c-7.74,6.47-16.12,12.79-25.25,18.87C1816.54,1142.21,1806.8,1148.13,1795.13,1153.48z"/>
	<path class="st1" d="M2025.28,833.93c-3.29-11.57-4.86-22.13-5.9-32.48c-1-10.3-1.34-20.23-1.11-29.84
		c0.49-19.22,2.96-37.41,7-54.68c8.12-34.54,22.36-65.73,41.14-94.43c18.93-28.67,42.33-54.86,71.78-77.7
		c14.7-11.44,31.06-22.01,49.33-31.53c9.12-4.7,18.84-9.13,29.22-13.23c10.45-4.05,21.34-7.82,34.01-10.66
		c3.23,11.54,4.74,22.1,5.79,32.41c0.96,10.26,1.24,20.18,1,29.79c-0.47,19.23-2.96,37.42-6.99,54.68
		c-8.14,34.54-22.27,65.76-40.97,94.56c-18.78,28.72-42.15,54.95-71.55,77.83c-14.73,11.43-31.05,21.96-49.37,31.45
		c-9.18,4.74-18.93,9.18-29.3,13.22C2048.92,827.37,2037.98,831.11,2025.28,833.93z"/>
	<path class="st1" d="M2064.94,1647.4c-9.5,0-19.17-0.4-28.91-1.14c-19.27-1.57-38.92-4.78-59.18-10.05
		c-10.14-2.65-20.4-5.87-30.87-9.78c-10.47-3.95-21.07-8.44-32.15-14.75c6.66-10.26,13.84-18.7,21.12-26.66
		c7.33-7.86,14.79-15.05,22.44-21.67c15.33-13.22,31.16-24.35,47.49-33.83c32.58-18.97,66.87-31.63,102.45-39.55
		c26.4-5.82,53.51-9.04,81.53-9.04c9.67,0,19.46,0.4,29.35,1.18c19.21,1.56,38.91,4.78,59.19,10c10.08,2.66,20.34,5.83,30.82,9.69
		c10.47,3.97,21.07,8.41,32.16,14.67c-6.72,10.22-13.85,18.62-21.17,26.53c-7.33,7.88-14.84,15.01-22.51,21.61
		c-15.26,13.19-31.14,24.32-47.47,33.8c-32.58,19.02-66.84,31.71-102.36,39.76C2120.32,1644.14,2093.05,1647.4,2064.94,1647.4z"/>
	<path class="st1" d="M2621.35,1558.01c-26.77,0-53.84-2.82-81.24-9.09c-18.74-4.29-37.63-10.3-56.7-18.44
		c-9.52-4.09-19.12-8.73-28.79-14.09c-9.65-5.43-19.36-11.39-29.25-19.22c8.38-9.18,16.89-16.48,25.49-23.27
		c8.57-6.73,17.24-12.75,25.88-18.19c17.41-10.83,35.02-19.52,52.72-26.57c35.48-14.01,71.49-21.57,107.97-24.27
		c9.52-0.66,19.02-1.05,28.59-1.05c27.15,0,54.55,2.88,82.29,9.27c18.74,4.31,37.62,10.31,56.69,18.4c9.52,4.04,19.12,8.71,28.79,14
		c9.66,5.44,19.35,11.36,29.2,19.11c-8.37,9.13-16.88,16.39-25.44,23.17c-8.57,6.7-17.22,12.66-25.92,18.11
		c-17.42,10.79-34.97,19.52-52.7,26.53c-35.45,14.05-71.51,21.71-107.95,24.49C2641.14,1557.62,2631.3,1558.01,2621.35,1558.01z"/>
	<path class="st1" d="M2181.92,1897.95c-19.6,0-38.26-1.61-56.14-4.51c-38.01-6.18-72.69-18.02-104.79-34.07
		c-32.07-16.1-61.51-36.54-87.57-62.59c-13.03-13.1-25.16-27.62-36.16-44.03c-5.47-8.22-10.66-16.95-15.5-26.27
		c-4.76-9.44-9.28-19.33-12.75-30.8c12.51-3.44,24.02-5.22,35.24-6.57c11.23-1.27,22.08-1.92,32.6-2.03
		c1.42-0.05,2.85-0.05,4.27-0.05c19.46,0,38.02,1.57,55.71,4.47c38.06,6.22,72.69,18.1,104.7,34.28
		c31.97,16.23,61.41,36.73,87.48,62.82c13.03,13.04,25.17,27.58,36.14,43.97c5.54,8.18,10.72,16.88,15.56,26.23
		c4.75,9.38,9.28,19.23,12.85,30.66c-12.52,3.4-24.03,5.14-35.26,6.49c-11.18,1.21-22.02,1.83-32.55,1.99
		C2184.49,1897.95,2183.2,1897.95,2181.92,1897.95z"/>
	<path class="st1" d="M2328.85,1411.06c-17.12,0-34.8-1.25-53.09-4.08c-10.35-1.66-20.97-3.78-31.81-6.61
		c-10.89-2.91-21.98-6.3-33.78-11.43c5.42-10.91,11.51-20.01,17.8-28.67c6.37-8.53,12.92-16.44,19.73-23.75
		c13.65-14.7,28.05-27.35,43.14-38.41c30.11-22.1,62.65-38.14,97.03-49.59c34.45-11.34,70.69-18.13,109.32-18.92
		c2.28-0.04,4.57-0.09,6.89-0.09c17.18,0,34.83,1.3,53.1,4.09c10.36,1.61,20.97,3.75,31.82,6.56c10.89,2.88,21.98,6.22,33.73,11.31
		c-5.43,10.83-11.56,19.92-17.83,28.53c-6.35,8.53-12.94,16.4-19.75,23.71c-13.66,14.61-28.11,27.31-43.14,38.36
		c-30.11,22.13-62.66,38.23-96.99,49.75c-34.41,11.53-70.59,18.37-109.22,19.19C2333.51,1411.06,2331.19,1411.06,2328.85,1411.06z"
		/>
	<path class="st1" d="M2083.97,1273.93c-11.32-0.05-23.03-0.52-35.9-2.49c1.94-11.83,5.03-22.14,8.51-32.02
		c3.51-9.78,7.46-19.05,11.79-27.84c8.67-17.53,18.75-33.31,29.88-47.76c22.32-28.83,48.81-52.45,78.39-72.07
		c29.68-19.61,62.46-35.27,99.37-45.76c18.46-5.22,38-9.08,58.89-11.27c10.46-1.05,21.27-1.66,32.53-1.7
		c11.37,0.04,23.02,0.49,35.87,2.39c-1.96,11.79-5.13,22.05-8.55,31.93c-3.58,9.8-7.52,19.02-11.85,27.75
		c-8.76,17.53-18.8,33.32-29.93,47.76c-22.31,28.89-48.76,52.51-78.25,72.3c-29.58,19.67-62.3,35.41-99.22,45.89
		c-18.46,5.22-38.01,9.08-58.89,11.22C2106.09,1273.32,2095.29,1273.93,2083.97,1273.93z"/>
	<path class="st1" d="M2526.45,1180.45c-2.61,0-5.23,0-7.88-0.09c-10.58-0.22-21.37-1-32.55-2.36c-11.26-1.47-22.73-3.4-35.21-6.9
		c3.63-11.49,8.25-21.33,13.14-30.68c4.9-9.3,10.17-17.97,15.79-26.14c11.18-16.26,23.49-30.71,36.67-43.62
		c26.36-25.85,56.09-45.95,88.35-61.77c32.23-15.75,67.07-27.24,105.16-33.02c16.84-2.57,34.31-3.95,52.66-3.95
		c2.42,0,4.9,0,7.37,0.04c10.51,0.26,21.3,1,32.48,2.34c11.23,1.43,22.73,3.3,35.15,6.79c-3.66,11.44-8.28,21.23-13.18,30.56
		c-4.94,9.28-10.28,17.93-15.85,26.06c-11.21,16.27-23.54,30.67-36.71,43.58c-26.36,25.89-56.03,46.07-88.2,62
		c-32.21,15.87-66.97,27.35-105.08,33.23C2561.94,1179.05,2544.62,1180.45,2526.45,1180.45z"/>
	<path class="st1" d="M2344.74,978.01c-0.57-11.92,0.34-22.58,1.66-32.89c1.39-10.23,3.34-20,5.77-29.36
		c4.86-18.76,11.42-36.02,19.32-52.17c15.89-32.17,36.92-59.97,61.89-84.47c25.01-24.4,53.89-45.5,87.94-62.24
		c17.04-8.35,35.4-15.56,55.47-21.35c10.03-2.87,20.56-5.35,31.6-7.36c11.13-1.95,22.63-3.55,35.67-3.91
		c0.56,11.88-0.39,22.53-1.71,32.8c-1.43,10.26-3.43,20-5.85,29.36c-4.91,18.7-11.46,35.97-19.37,52.12
		c-15.84,32.18-36.87,60.02-61.68,84.6c-24.93,24.49-53.77,45.62-87.78,62.41c-17.02,8.35-35.43,15.58-55.5,21.33
		c-10.04,2.87-20.56,5.35-31.64,7.34C2369.34,976.13,2357.78,977.7,2344.74,978.01z"/>
	<path class="st1" d="M2434.03,1763.85c-7.71,0-15.38-0.23-23.07-0.65c-36.48-2.19-72.64-9.27-108.36-22.75
		c-17.83-6.79-35.58-15.28-53.14-25.83c-8.78-5.32-17.5-11.23-26.21-17.8c-8.69-6.7-17.35-13.87-25.86-22.93
		c9.74-7.96,19.36-14.05,28.91-19.67c9.57-5.47,19.09-10.25,28.55-14.47c18.92-8.39,37.72-14.67,56.42-19.22
		c29.11-7.1,57.93-10.31,86.51-10.31c8.09,0,16.14,0.26,24.18,0.73c36.48,2.31,72.64,9.44,108.36,22.98
		c17.83,6.78,35.53,15.27,53.13,25.83c8.79,5.27,17.51,11.15,26.21,17.71c8.71,6.65,17.36,13.78,25.88,22.79
		c-9.74,7.91-19.36,13.96-28.91,19.53c-9.57,5.48-19.09,10.22-28.55,14.44c-18.93,8.35-37.73,14.62-56.37,19.18
		C2492.2,1760.63,2463,1763.85,2434.03,1763.85z"/>
	<path class="st1" d="M1484.42,751.12c-10.85-6.7-19.68-13.69-27.98-20.79c-8.17-7.12-15.6-14.36-22.35-21.75
		c-13.56-14.71-24.83-29.8-34.3-45.24c-18.83-30.8-30.79-62.8-37.38-95.74c-6.57-32.93-7.89-66.71-2.32-101.7
		c2.74-17.49,7.36-35.28,14.21-53.42c3.47-9.08,7.53-18.3,12.31-27.61c4.96-9.35,10.38-18.8,17.85-28.54
		c10.74,6.65,19.55,13.71,27.78,20.79c8.14,7.13,15.56,14.4,22.3,21.75c13.57,14.74,24.83,29.85,34.25,45.23
		c18.9,30.85,30.88,62.86,37.63,95.75c6.71,32.89,8.13,66.67,2.61,101.61c-2.8,17.49-7.42,35.28-14.31,53.46
		c-3.47,9.1-7.56,18.31-12.42,27.61C1497.4,731.89,1491.89,741.33,1484.42,751.12z"/>
	<path class="st1" d="M1271.5,833.93c-12.7-2.82-23.64-6.57-34.11-10.6c-10.38-4.05-20.07-8.49-29.3-13.22
		c-18.31-9.49-34.62-20.01-49.32-31.45c-29.45-22.89-52.81-49.12-71.54-77.83c-18.71-28.79-32.87-60.01-41-94.56
		c-4.05-17.27-6.52-35.46-7-54.68c-0.25-9.62,0.05-19.53,1-29.79c1.05-10.31,2.56-20.87,5.81-32.41
		c12.65,2.84,23.59,6.61,34.01,10.66c10.36,4.1,20.07,8.53,29.2,13.23c18.31,9.52,34.63,20.1,49.33,31.53
		c29.5,22.84,52.89,49.03,71.79,77.7c18.78,28.69,33.01,59.89,41.14,94.43c4.1,17.27,6.51,35.46,6.99,54.68
		c0.24,9.61-0.1,19.54-1.1,29.84C1276.35,811.8,1274.77,822.36,1271.5,833.93z"/>
	<path class="st1" d="M675.42,1558.01c-9.91,0-19.8-0.39-29.59-1.12c-36.48-2.79-72.49-10.45-107.98-24.49
		c-17.75-7.01-35.3-15.74-52.71-26.53c-8.71-5.44-17.31-11.41-25.93-18.11c-8.55-6.78-17.07-14.05-25.44-23.17
		c9.84-7.75,19.56-13.67,29.2-19.11c9.66-5.29,19.26-9.96,28.78-14c19.12-8.08,38-14.09,56.7-18.4c27.73-6.39,55.13-9.27,82.28-9.27
		c9.57,0,19.07,0.39,28.6,1.05c36.48,2.7,72.5,10.26,107.98,24.27c17.75,7.05,35.3,15.74,52.72,26.57
		c8.71,5.44,17.31,11.46,25.93,18.19c8.55,6.79,17.07,14.09,25.45,23.27c-9.89,7.84-19.6,13.8-29.25,19.22
		c-9.65,5.36-19.26,10-28.79,14.09c-19.07,8.15-37.95,14.15-56.7,18.44C729.26,1555.19,702.2,1558.01,675.42,1558.01z"/>
	<path class="st1" d="M770.31,1180.45c-18.12,0-35.48-1.4-52.13-3.92c-38.11-5.87-72.88-17.35-105.07-33.23
		c-32.15-15.93-61.85-36.11-88.19-62c-13.18-12.91-25.49-27.31-36.72-43.58c-5.56-8.13-10.91-16.78-15.85-26.06
		c-4.86-9.34-9.52-19.12-13.18-30.56c12.47-3.49,23.93-5.36,35.16-6.79c11.18-1.34,21.98-2.08,32.5-2.34
		c2.47-0.04,4.94-0.04,7.4-0.04c18.33,0,35.84,1.38,52.62,3.95c38.11,5.78,72.93,17.27,105.19,33.02
		c32.28,15.83,61.97,35.92,88.37,61.77c13.13,12.91,25.45,27.35,36.63,43.62c5.61,8.17,10.89,16.84,15.79,26.14
		c4.9,9.35,9.52,19.19,13.18,30.68c-12.48,3.51-23.98,5.43-35.21,6.9c-11.23,1.36-22.02,2.14-32.59,2.36
		C775.58,1180.45,772.94,1180.45,770.31,1180.45z"/>
	<path class="st1" d="M952.02,978.01c-13.04-0.31-24.59-1.88-35.77-3.8c-11.09-1.99-21.59-4.47-31.62-7.34
		c-20.07-5.75-38.48-12.97-55.52-21.33c-33.96-16.78-62.83-37.91-87.76-62.41c-24.83-24.58-45.86-52.43-61.7-84.6
		c-7.89-16.14-14.46-33.42-19.36-52.12c-2.42-9.35-4.42-19.09-5.81-29.36c-1.32-10.27-2.27-20.92-1.74-32.8
		c13.02,0.36,24.54,1.96,35.66,3.91c11.1,2.01,21.55,4.49,31.59,7.36c20.07,5.79,38.44,13,55.47,21.35
		c34.04,16.74,62.93,37.84,87.95,62.24c24.98,24.5,46,52.29,61.88,84.47c7.95,16.14,14.47,33.41,19.36,52.17
		c2.39,9.35,4.33,19.13,5.76,29.36C951.68,955.43,952.64,966.09,952.02,978.01z"/>
	<path class="st1" d="M862.75,1763.85c-28.98,0-58.18-3.22-87.68-10.45c-18.65-4.56-37.43-10.83-56.36-19.18
		c-9.47-4.22-18.99-8.96-28.56-14.44c-9.55-5.57-19.15-11.61-28.91-19.53c8.57-9.01,17.17-16.14,25.88-22.79
		c8.69-6.56,17.46-12.44,26.2-17.71c17.6-10.56,35.3-19.05,53.18-25.83c35.67-13.53,71.83-20.66,108.31-22.98
		c8.04-0.47,16.14-0.73,24.17-0.73c0.61,0,1.24,0,1.86,0c27.97,0.13,56.17,3.35,84.68,10.31c18.68,4.55,37.48,10.83,56.41,19.22
		c9.47,4.22,18.99,9,28.55,14.47c9.56,5.63,19.17,11.72,28.92,19.67c-8.52,9.06-17.18,16.23-25.88,22.93
		c-8.66,6.56-17.41,12.48-26.22,17.8c-17.55,10.56-35.28,19.05-53.13,25.83c-35.67,13.48-71.86,20.56-108.36,22.75
		c-7.08,0.38-14.17,0.61-21.3,0.65C863.92,1763.85,863.31,1763.85,862.75,1763.85z"/>
</g>
</svg>
